<?xml version="1.0" standalone="no"?>
<!DOCTYPE svg PUBLIC "-//W3C//DTD SVG 20010904//EN"
 "http://www.w3.org/TR/2001/REC-SVG-20010904/DTD/svg10.dtd">
<svg version="1.0" xmlns="http://www.w3.org/2000/svg"
 width="1298.000000pt" height="269.000000pt" viewBox="0 0 1298.000000 269.000000"
 preserveAspectRatio="xMidYMid meet">

<g transform="translate(0.000000,269.000000) scale(0.100000,-0.100000)"
fill="#000000" stroke="none">
<path d="M815 2654 c-368 -35 -520 -123 -636 -369 -91 -194 -129 -472 -130
-940 0 -855 142 -1168 578 -1277 75 -19 116 -22 283 -22 216 0 434 23 485 53
52 29 65 70 65 209 0 117 -1 124 -25 147 -29 30 -17 29 -218 9 -209 -21 -428
-16 -476 10 -72 39 -109 101 -135 230 -48 230 -48 973 -1 1251 27 157 89 255
181 285 48 16 261 8 389 -15 173 -31 182 -31 216 1 35 33 89 167 96 240 6 52
5 52 -37 83 -50 36 -163 74 -266 90 -78 12 -305 21 -369 15z"/>
<path d="M1895 2651 c-124 -22 -186 -118 -172 -267 13 -136 87 -199 237 -199
95 1 159 29 197 87 22 33 27 54 31 123 7 127 -23 197 -101 233 -48 23 -134 33
-192 23z"/>
<path d="M6680 2647 c-75 -17 -108 -41 -120 -87 -7 -25 -9 -443 -8 -1233 l3
-1195 24 -26 c42 -45 110 -60 263 -61 119 0 140 2 155 18 17 17 18 66 23 812
l5 793 100 -194 100 -194 169 2 169 3 106 197 106 196 5 -771 c4 -618 8 -777
18 -795 27 -47 93 -65 252 -70 134 -4 147 -3 170 16 l25 20 3 719 c2 681 1
745 -27 1240 -31 569 -29 556 -92 589 -45 23 -153 36 -227 29 -105 -11 -98 1
-308 -515 -103 -250 -189 -458 -193 -462 -4 -4 -85 192 -180 437 -191 487
-194 493 -286 520 -69 21 -191 27 -255 12z"/>
<path d="M12550 2653 c-14 -3 -33 -12 -42 -20 -17 -15 -18 -48 -18 -423 l0
-407 -172 -6 c-197 -7 -291 -24 -395 -72 -127 -59 -195 -149 -238 -318 -39
-153 -48 -275 -42 -551 5 -243 10 -292 43 -441 59 -258 219 -388 460 -372 93
5 149 27 264 101 39 25 74 46 78 46 4 0 23 -25 42 -56 24 -40 45 -61 70 -72
44 -19 263 -29 303 -13 l27 11 0 782 c0 714 -2 826 -26 1273 -14 270 -31 495
-36 502 -5 6 -30 16 -56 22 -57 12 -228 21 -262 14z m-60 -1673 l0 -511 -102
-49 c-57 -28 -130 -55 -163 -61 -55 -10 -60 -9 -76 10 -28 34 -34 115 -34 496
0 378 5 438 46 522 37 77 92 100 247 102 l82 1 0 -510z"/>
<path d="M1790 1789 c-13 -6 -28 -15 -32 -22 -4 -7 -8 -386 -8 -843 0 -720 2
-833 15 -844 36 -30 349 -53 409 -30 l26 10 0 849 0 850 -37 10 c-105 28 -324
39 -373 20z"/>
<path d="M2550 1788 l-35 -13 -3 -847 -2 -846 32 -11 c86 -27 359 -41 412 -21
l26 10 0 653 0 653 88 43 c96 48 124 58 194 70 97 16 98 7 105 -772 l6 -627
38 -10 c102 -28 351 -40 404 -20 l26 10 -4 638 c-4 668 -6 692 -52 829 -52
154 -160 240 -334 265 -63 9 -94 9 -139 0 -61 -13 -223 -88 -312 -145 l-55
-36 -38 75 c-31 62 -44 78 -74 90 -49 21 -237 28 -283 12z"/>
<path d="M4555 1785 c-177 -29 -265 -85 -333 -213 -74 -139 -102 -317 -102
-640 0 -239 10 -351 45 -488 54 -214 158 -326 352 -380 78 -22 395 -30 577
-15 220 19 289 39 303 89 5 15 8 73 7 130 -1 135 -8 144 -97 126 -141 -30
-574 -46 -631 -24 -50 19 -70 101 -82 337 l-7 131 349 4 c272 3 358 7 389 19
l40 14 3 115 c4 136 -11 304 -38 416 -56 240 -165 345 -395 379 -120 18 -270
18 -380 0z m315 -303 c26 -21 47 -105 55 -222 3 -47 8 -102 10 -122 l5 -38
-175 0 -175 0 0 140 c0 105 4 148 15 169 19 37 87 70 167 80 35 5 66 9 69 10
4 0 17 -7 29 -17z"/>
<path d="M9005 1789 c-151 -20 -251 -64 -316 -138 -112 -126 -159 -341 -159
-718 0 -612 126 -830 509 -884 103 -14 310 -6 400 16 129 31 238 103 296 195
88 140 133 422 121 765 -17 505 -112 685 -396 750 -89 20 -350 29 -455 14z
m304 -323 c17 -13 30 -46 48 -121 20 -83 30 -605 14 -747 -14 -116 -39 -182
-80 -202 -35 -18 -122 -36 -176 -36 -77 0 -103 50 -125 239 -18 152 -8 658 14
736 28 98 74 131 201 145 63 6 81 4 104 -14z"/>
<path d="M10598 1790 c-302 -38 -425 -184 -468 -560 -19 -157 -7 -588 18 -710
58 -277 159 -396 387 -456 101 -27 391 -27 490 0 151 40 255 115 313 224 73
137 105 334 105 642 0 237 -10 357 -43 484 -55 214 -153 316 -350 361 -87 19
-349 28 -452 15z m315 -348 c35 -59 48 -166 54 -438 7 -349 -10 -523 -56 -578
-43 -51 -215 -85 -264 -53 -29 19 -53 92 -67 198 -26 212 -21 612 10 757 21
97 77 138 205 152 75 7 95 1 118 -38z"/>
</g>
</svg>
