<?xml version="1.0" standalone="no"?>
<!DOCTYPE svg PUBLIC "-//W3C//DTD SVG 20010904//EN"
 "http://www.w3.org/TR/2001/REC-SVG-20010904/DTD/svg10.dtd">
<svg version="1.0" xmlns="http://www.w3.org/2000/svg"
 width="428.000000pt" height="427.000000pt" viewBox="0 0 428.000000 427.000000"
 preserveAspectRatio="xMidYMid meet">

<g transform="translate(0.000000,427.000000) scale(0.100000,-0.100000)"
fill="#000000" stroke="none">
<path d="M1935 4223 c-284 -35 -517 -105 -750 -227 -208 -108 -370 -231 -545
-413 -475 -493 -672 -1178 -535 -1858 108 -537 432 -1013 899 -1324 272 -181
603 -297 941 -332 144 -14 399 -7 535 16 509 84 972 353 1287 745 244 303 391
641 448 1025 22 147 22 434 0 580 -51 342 -171 641 -369 920 -336 474 -853
785 -1429 860 -107 14 -397 19 -482 8z m502 -688 c178 -39 356 -115 502 -213
109 -73 280 -237 354 -341 335 -465 362 -1074 69 -1566 -217 -366 -612 -688
-1082 -883 -98 -41 -341 -124 -396 -136 l-32 -7 -7 180 c-5 115 -11 184 -19
189 -6 5 -58 23 -115 41 -204 64 -405 187 -566 348 -470 469 -549 1206 -187
1768 213 332 558 558 962 631 102 18 418 12 517 -11z"/>
<path d="M1783 2761 c-18 -11 -42 -40 -55 -63 l-23 -43 0 -505 c0 -498 0 -506
22 -552 31 -67 71 -90 148 -85 50 3 76 13 160 59 104 57 431 237 665 365 74
41 148 86 163 101 81 77 73 157 -23 233 -19 15 -152 91 -295 169 -665 364
-604 334 -670 338 -47 2 -67 -1 -92 -17z"/>
</g>
</svg>
